<svg xmlns="http://www.w3.org/2000/svg" width="231" height="231" viewBox="0 0 231 231"><g><g><path fill="#e9e9e9" d="M114.74-.004h1.876c34.34 1.28 57.48 13.764 76.49 30.377-1.754 2.996-4.576 4.923-6.374 7.876-19.116-15.314-40.15-28.064-71.616-27.753-30.542.303-54.188 12.596-71.241 28.128-17.487 15.926-30.134 39.083-32.996 66.38-3.298 31.45 7.714 57.703 22.497 76.13 14.943 18.627 35.401 32.382 61.867 37.503 29.908 5.788 59.684-2.58 79.49-16.126 18.687-12.779 34.454-33.292 41.62-57.754 7.565-25.825 3.99-60.72-9.749-81.007 1.792-3.231 4.677-7.291 7.5-8.25 8.26 14.273 14.771 30.647 16.497 50.629 1.821 21.074-2.893 41.216-9.748 56.254-13.5 29.614-38.36 52.868-70.116 63.38-38.755 12.829-80.894.289-104.987-18.001-25.536-19.385-42.294-47.21-45.745-87.757v-9c2.165-34.33 16.367-59.499 34.87-78.007C53.356 14.516 79.758 1.466 114.742-.004zm104.238 31.502c-35.593 43.159-72.307 85.188-107.987 128.26-17.403-15.221-33.738-31.51-50.993-46.879 1.128-.22 5.267-7.796 7.124-7.875 1.042-.045 4.011 4.126 5.25 5.25 12.12 11.01 26.363 24.048 37.12 34.503 34.247-39.502 67.88-79.617 101.612-119.634 2.885 1.865 5.04 4.46 7.874 6.375z"/></g></g></svg>