<svg xmlns="http://www.w3.org/2000/svg" width="201" height="54" viewBox="0 0 201 54"><g><g><path fill="#fff" d="M17.585 31.254c6.289 2.743 14.495-3.593 14.495-11.842 0-4.339-2.344-9.56-10.551-8.526-9.486 1.194-14.495 9.003-14.495 14.252 0 2.571 1.226 4.773 1.226 4.773l-5.65 4.944S0 31.166 0 26.132C0 18.418 6.127 6.184 21.528 4.243c13.11-1.65 18.652 6.007 18.652 14.095 0 11.141-10.445 22.742-24.78 18.602L9.644 52.126l-8.473 1.068 11.884-31.171c1.492-3.884 5.222-8.425 10.551-9.096l1.546 4.412s-2.718 1.467-4.317 5.525zm29.308-19.278c0-2.625 2.078-4.922 4.69-5.25 2.504-.316 4.689 1.444 4.689 4.069 0 2.517-2.185 4.988-4.69 5.304-2.611.329-4.69-1.606-4.69-4.123zM58.51 32.527c-4.104 7.748-9.433 14.633-15.561 15.405-4.85.61-8.26-2.816-4.37-13l6.022-15.704 8.473-1.067-6.555 17.216c-2.45 6.415-1.492 7.044-.586 6.93 2.132-.269 5.809-4.481 9.592-11.546C60 22.377 61.227 16.437 67.622 15.63c4.37-.55 8.366 1.625 13.589-1.014l2.77 3.347-15.613 16.268c2.451.066 4.423 1.8 7.14 1.457 1.972-.249 4.637-1.709 8.26-8.484v-.002c4.476-8.384 5.702-14.323 12.096-15.128 4.37-.55 8.367 1.624 13.59-1.016l2.77 3.347L96.61 30.674c2.452.066 4.424 1.8 7.141 1.458 1.923-.242 4.505-1.638 7.993-7.992 2.074-6.88 6.366-14.867 13.216-15.73 5.17-.651 6.342 3.54 6.342 3.54l9.965-4.898-6.608 17.223c-2.398 6.355-1.492 7.044-.533 6.924 2.131-.269 5.754-4.473 9.59-11.544v-.002c1.173-2.237 2.665-5.478 4.21-9.101-.96-.896-1.652-1.72-1.652-3.06 0-2.731 2.824-5.979 5.01-6.95l3.463 1.491-1.705 4.5c2.185 1.654 8.74 3.828 8.74 7.845 0 .642-.16 1.466-.64 2.758l-1.492 3.991c-2.451 6.308-1.172 7.004-.426 6.91 1.47-.185 3.977-3.727 7.978-11.043 1.793-6.835 6.918-14.776 15.788-15.893 6.448-.812 10.018 2.488 10.018 8.7 0 2.947-.8 6.636-2.398 10.105 2.611-.757 5.223-3.068 7.407-7.093 1.12-.034 2.558.803 2.985 1.767-2.878 5.344-7.727 9.544-13.163 9.8-2.665 3.442-6.395 6.108-11.138 6.705-5.618.708-9.079-1.799-9.99-6.319-3.064 4.78-6.418 8.386-10.578 8.91-4.157.523-8.58-2.026-4.743-11.99l1.705-4.554c.427-1.124.48-1.667.48-1.935 0-1.07-1.173-1.887-2.611-2.938a93.906 93.906 0 0 1-4.262 9.158v.002c-4.156 7.809-9.325 14.62-15.827 15.438-5.542.698-6.235-3.66-6.235-3.66s-3.677 4.909-8.367 5.499c-3.732.47-5.745-2.032-5.995-5.505-3.034 4.21-6.38 7.064-10.79 7.62-6.608.832-8.1-4.283-13.695 1.028l-2.772-3.347 16.627-17.2c-1.652-.112-3.624-.882-5.862-.6-2.451.309-3.57 1.735-7.034 8.277l.001.001c-4.476 8.277-8.74 14.545-15.508 15.398-6.608.832-8.1-4.283-13.695 1.029l-2.771-3.347 16.626-17.2c-1.652-.113-3.623-.882-5.862-.6-2.45.308-3.57 1.735-7.034 8.276v.001zm67.09-5.664l3.463-9.007s-.053-2.993-2.398-2.698c-4.21.53-8.153 11.044-8.153 14.472 0 1.393.64 1.901 1.705 1.767 2.93-.37 5.382-4.534 5.382-4.534zm54.832-4.443c-.746-.71-1.173-1.673-1.173-2.852 0-2.41 1.919-4.634 4.53-4.856.746-2.182 1.172-4.164 1.172-5.503 0-1.983-.959-2.665-2.078-2.524-4.21.53-8.313 12.296-8.313 16.26 0 1.713.799 2.737 2.078 2.576 1.279-.16 2.611-1.4 3.784-3.1z"/></g></g></svg>